<svg width="106" height="22" viewBox="0 0 106 22" fill="none" xmlns="http://www.w3.org/2000/svg">
<path d="M7.28 19.2526C5.772 19.2526 4.472 19.0099 3.38 18.5246C2.30533 18.0219 1.31733 17.2679 0.416 16.2626L3.068 13.6366C3.65733 14.3126 4.30733 14.8412 5.018 15.2226C5.746 15.5866 6.58667 15.7686 7.54 15.7686C8.40667 15.7686 9.074 15.6126 9.542 15.3006C10.0273 14.9886 10.27 14.5552 10.27 14.0006C10.27 13.4979 10.114 13.0906 9.802 12.7786C9.49 12.4666 9.074 12.1979 8.554 11.9726C8.05133 11.7472 7.488 11.5306 6.864 11.3226C6.25733 11.1146 5.65067 10.8806 5.044 10.6206C4.43733 10.3432 3.874 10.0052 3.354 9.60655C2.85133 9.19055 2.444 8.67922 2.132 8.07255C1.82 7.44855 1.664 6.66855 1.664 5.73255C1.664 4.60589 1.93267 3.63522 2.47 2.82055C3.02467 2.00588 3.78733 1.39055 4.758 0.974552C5.72867 0.541219 6.84667 0.324553 8.112 0.324553C9.39467 0.324553 10.5647 0.549886 11.622 1.00055C12.6967 1.45122 13.5807 2.06655 14.274 2.84655L11.622 5.47255C11.0673 4.90055 10.504 4.47589 9.932 4.19855C9.37733 3.92122 8.74467 3.78255 8.034 3.78255C7.32333 3.78255 6.76 3.92122 6.344 4.19855C5.928 4.45855 5.72 4.83989 5.72 5.34255C5.72 5.81055 5.876 6.19189 6.188 6.48655C6.5 6.76389 6.90733 7.00655 7.41 7.21455C7.93 7.42255 8.49333 7.63055 9.1 7.83855C9.724 8.04655 10.3393 8.28922 10.946 8.56655C11.5527 8.84389 12.1073 9.19922 12.61 9.63255C13.13 10.0486 13.546 10.5859 13.858 11.2446C14.17 11.8859 14.326 12.6832 14.326 13.6366C14.326 15.3872 13.702 16.7652 12.454 17.7706C11.206 18.7586 9.48133 19.2526 7.28 19.2526ZM22.1782 19.2526C21.0169 19.2526 19.9855 19.0186 19.0842 18.5506C18.2002 18.0652 17.5069 17.4066 17.0042 16.5746C16.5015 15.7252 16.2502 14.7546 16.2502 13.6626V6.33055H20.2282V13.6106C20.2282 14.0439 20.2975 14.4166 20.4362 14.7286C20.5922 15.0406 20.8175 15.2832 21.1122 15.4566C21.4069 15.6299 21.7622 15.7166 22.1782 15.7166C22.7675 15.7166 23.2355 15.5346 23.5822 15.1706C23.9289 14.7892 24.1022 14.2692 24.1022 13.6106V6.33055H28.0802V13.6366C28.0802 14.7459 27.8289 15.7252 27.3262 16.5746C26.8235 17.4066 26.1302 18.0652 25.2462 18.5506C24.3622 19.0186 23.3395 19.2526 22.1782 19.2526ZM30.5778 18.9666V6.33055H34.5558V18.9666H30.5778ZM34.5558 12.0246L32.8918 10.7246C33.2212 9.25122 33.7758 8.10722 34.5558 7.29255C35.3358 6.47789 36.4192 6.07055 37.8058 6.07055C38.4125 6.07055 38.9412 6.16589 39.3918 6.35655C39.8598 6.52989 40.2672 6.80722 40.6138 7.18855L38.2478 10.1786C38.0745 9.98789 37.8578 9.84055 37.5978 9.73655C37.3378 9.63255 37.0432 9.58055 36.7138 9.58055C36.0552 9.58055 35.5265 9.78855 35.1278 10.2046C34.7465 10.6032 34.5558 11.2099 34.5558 12.0246ZM63.2241 19.2526C61.8547 19.2526 60.6327 18.9752 59.5581 18.4206C58.5007 17.8486 57.6687 17.0599 57.0621 16.0546C56.4554 15.0492 56.1521 13.9139 56.1521 12.6486C56.1521 11.3832 56.4467 10.2566 57.0361 9.26855C57.6427 8.26322 58.4574 7.47455 59.4801 6.90255C60.5027 6.33055 61.6554 6.04455 62.9381 6.04455C64.1861 6.04455 65.2867 6.31322 66.2401 6.85055C67.1934 7.38789 67.9387 8.13322 68.4761 9.08655C69.0307 10.0399 69.3081 11.1319 69.3081 12.3626C69.3081 12.5879 69.2907 12.8306 69.2561 13.0906C69.2387 13.3332 69.1954 13.6192 69.1261 13.9486L58.2321 13.9746V11.2446L67.4361 11.2186L65.7201 12.3626C65.7027 11.6346 65.5901 11.0366 65.3821 10.5686C65.1741 10.0832 64.8621 9.71922 64.4461 9.47655C64.0474 9.21655 63.5534 9.08655 62.9641 9.08655C62.3401 9.08655 61.7941 9.23389 61.3261 9.52855C60.8754 9.80589 60.5201 10.2046 60.2601 10.7246C60.0174 11.2446 59.8961 11.8772 59.8961 12.6226C59.8961 13.3679 60.0261 14.0092 60.2861 14.5466C60.5634 15.0666 60.9447 15.4739 61.4301 15.7686C61.9327 16.0459 62.5221 16.1846 63.1981 16.1846C63.8221 16.1846 64.3854 16.0806 64.8881 15.8726C65.3907 15.6472 65.8327 15.3179 66.2141 14.8846L68.3981 17.0686C67.7741 17.7966 67.0201 18.3426 66.1361 18.7066C65.2521 19.0706 64.2814 19.2526 63.2241 19.2526ZM71.2282 18.9666V6.33055H75.2062V18.9666H71.2282ZM73.2302 4.58855C72.6062 4.58855 72.0862 4.38055 71.6702 3.96455C71.2716 3.53122 71.0722 3.01122 71.0722 2.40455C71.0722 1.78055 71.2716 1.26055 71.6702 0.844552C72.0862 0.428552 72.6062 0.220552 73.2302 0.220552C73.8542 0.220552 74.3656 0.428552 74.7642 0.844552C75.1629 1.26055 75.3622 1.78055 75.3622 2.40455C75.3622 3.01122 75.1629 3.53122 74.7642 3.96455C74.3656 4.38055 73.8542 4.58855 73.2302 4.58855ZM86.3535 18.9666V11.7646C86.3535 11.1059 86.1455 10.5772 85.7295 10.1786C85.3308 9.76255 84.8195 9.55455 84.1955 9.55455C83.7622 9.55455 83.3808 9.64989 83.0515 9.84055C82.7222 10.0139 82.4622 10.2739 82.2715 10.6206C82.0808 10.9499 81.9855 11.3312 81.9855 11.7646L80.4515 11.0106C80.4515 10.0226 80.6682 9.15589 81.1015 8.41055C81.5348 7.66522 82.1328 7.09322 82.8955 6.69455C83.6755 6.27855 84.5508 6.07055 85.5215 6.07055C86.4575 6.07055 87.2808 6.29589 87.9915 6.74655C88.7195 7.17989 89.2915 7.76055 89.7075 8.48855C90.1235 9.21655 90.3315 10.0139 90.3315 10.8806V18.9666H86.3535ZM78.0075 18.9666V6.33055H81.9855V18.9666H78.0075ZM99.1264 19.2526C97.7571 19.2526 96.5351 18.9752 95.4604 18.4206C94.4031 17.8486 93.5711 17.0599 92.9644 16.0546C92.3578 15.0492 92.0544 13.9139 92.0544 12.6486C92.0544 11.3832 92.3491 10.2566 92.9384 9.26855C93.5451 8.26322 94.3598 7.47455 95.3824 6.90255C96.4051 6.33055 97.5578 6.04455 98.8404 6.04455C100.088 6.04455 101.189 6.31322 102.142 6.85055C103.096 7.38789 103.841 8.13322 104.378 9.08655C104.933 10.0399 105.21 11.1319 105.21 12.3626C105.21 12.5879 105.193 12.8306 105.158 13.0906C105.141 13.3332 105.098 13.6192 105.028 13.9486L94.1344 13.9746V11.2446L103.338 11.2186L101.622 12.3626C101.605 11.6346 101.492 11.0366 101.284 10.5686C101.076 10.0832 100.764 9.71922 100.348 9.47655C99.9498 9.21655 99.4558 9.08655 98.8664 9.08655C98.2424 9.08655 97.6964 9.23389 97.2284 9.52855C96.7778 9.80589 96.4224 10.2046 96.1624 10.7246C95.9198 11.2446 95.7984 11.8772 95.7984 12.6226C95.7984 13.3679 95.9284 14.0092 96.1884 14.5466C96.4658 15.0666 96.8471 15.4739 97.3324 15.7686C97.8351 16.0459 98.4244 16.1846 99.1004 16.1846C99.7244 16.1846 100.288 16.0806 100.79 15.8726C101.293 15.6472 101.735 15.3179 102.116 14.8846L104.3 17.0686C103.676 17.7966 102.922 18.3426 102.038 18.7066C101.154 19.0706 100.184 19.2526 99.1264 19.2526Z" fill="white"/>
<path d="M48.3981 20.8137L38.3778 3.8859L42.6852 3.161L50.4564 16.9079L48.6873 17.2057L51.6078 1.65941L55.8639 0.94314L51.8594 20.2312L48.3981 20.8137Z" fill="#C2D4FF"/>
</svg>

