<svg width="16" height="16" viewBox="0 0 16 16" fill="none" xmlns="http://www.w3.org/2000/svg">
<path d="M15.4533 12.7905L12.7505 10.0877L10.6716 9.22881C11.3638 8.24442 11.7346 7.07006 11.7333 5.86665C11.7333 2.63176 9.10155 0 5.86665 0C2.63176 0 0 2.63176 0 5.86665C0 9.10155 2.63176 11.7333 5.86665 11.7333C7.08053 11.7347 8.26461 11.3574 9.25395 10.6541L10.1106 12.7274L12.8133 15.4303C12.9866 15.6037 13.1924 15.7412 13.4189 15.835C13.6454 15.9288 13.8881 15.9771 14.1332 15.9771C14.3784 15.9771 14.6211 15.9288 14.8476 15.835C15.0741 15.7412 15.2799 15.6037 15.4532 15.4304C15.6266 15.2571 15.7641 15.0513 15.8579 14.8248C15.9517 14.5984 16 14.3556 16 14.1105C16 13.8653 15.9517 13.6226 15.8579 13.3961C15.7641 13.1696 15.6266 12.9638 15.4533 12.7905ZM1.06666 5.86665C1.06666 3.21999 3.21999 1.06666 5.86665 1.06666C8.51331 1.06666 10.6666 3.21999 10.6666 5.86665C10.6666 8.51331 8.51331 10.6666 5.86665 10.6666C3.21999 10.6666 1.06666 8.51331 1.06666 5.86665ZM14.699 14.6761C14.5488 14.8259 14.3454 14.91 14.1333 14.91C13.9212 14.91 13.7178 14.8259 13.5676 14.6761L11.0152 12.1237L10.2187 10.1959L12.1466 10.9923L14.6991 13.5447C14.8489 13.6949 14.933 13.8983 14.933 14.1104C14.9329 14.3225 14.8488 14.526 14.699 14.6761Z" fill="#1A2051"/>
</svg>
